<?xml version="1.0" encoding="utf-8"?>
<!-- Generator: Adobe Illustrator 16.0.0, SVG Export Plug-In . SVG Version: 6.00 Build 0)  -->
<!DOCTYPE svg PUBLIC "-//W3C//DTD SVG 1.1//EN" "http://www.w3.org/Graphics/SVG/1.1/DTD/svg11.dtd">
<svg version="1.1" id="Layer_1" xmlns="http://www.w3.org/2000/svg" xmlns:xlink="http://www.w3.org/1999/xlink" x="0px" y="0px"
	 width="496px" height="496px" viewBox="0 0 496 496" enable-background="new 0 0 496 496" xml:space="preserve">
<g>
	<rect x="232.256" y="84.51" width="15.949" height="402.693"/>
	<rect x="148.202" y="277.896" width="293.371" height="15.935"/>
	<rect x="161.285" y="180.695" width="220.14" height="15.935"/>
	<rect x="61.603" y="375.085" width="357.255" height="15.933"/>
	<path d="M411.61,230.272c-9.245,0-17.579-4.754-22.296-12.697l-49.056-82.666c-15.408-25.971-16.275-57.608-2.325-84.646
		c13.21-25.611,37.883-42.278,65.992-44.618c5.069-0.398,10.249-0.41,15.292,0c28.138,2.313,52.834,18.981,66.058,44.592
		c13.962,27.037,13.102,58.688-2.313,84.658l-49.063,82.679C429.184,225.518,420.85,230.272,411.61,230.272z M411.61,21.286
		c-2.151,0-4.279,0.09-6.386,0.257c-22.92,1.901-42.285,15.035-53.126,36.032c-11.417,22.116-10.716,47.984,1.872,69.187
		l49.056,82.667c1.838,3.111,4.967,4.897,8.577,4.897c3.619,0,6.741-1.786,8.584-4.897l49.07-82.679
		c12.58-21.203,13.281-47.071,1.856-69.199c-10.853-20.998-30.236-34.131-53.195-36.007
		C415.838,21.376,413.731,21.286,411.61,21.286z"/>
	<path d="M94.043,363.736c-9.245,0-17.58-4.755-22.295-12.695l-49.057-82.667c-15.407-25.971-16.275-57.621-2.319-84.659
		c13.209-25.598,37.882-42.265,65.993-44.591c5.063-0.412,10.242-0.412,15.286,0c28.142,2.3,52.835,18.967,66.064,44.578
		c13.962,27.037,13.102,58.688-2.313,84.659l-49.063,82.68C111.617,358.981,103.283,363.736,94.043,363.736z M94.043,154.751
		c-2.146,0-4.278,0.089-6.379,0.269c-22.919,1.89-42.291,15.01-53.124,36.02c-11.418,22.115-10.724,47.984,1.863,69.199
		l49.057,82.668c1.844,3.096,4.973,4.882,8.577,4.882c3.617,0,6.747-1.786,8.59-4.882l49.063-82.692
		c12.588-21.205,13.282-47.073,1.857-69.188c-10.846-21.011-30.237-34.13-53.188-36.007
		C98.278,154.84,96.171,154.751,94.043,154.751z"/>
	<path d="M240.23,495.171c-115.416,0-209.314-93.899-209.314-209.309c0-1.4,0.051-2.774,0.089-4.162l0.803-29.209l53.652,90.416
		c3.688,6.207,13.479,6.22,17.167,0l49.063-82.692c12.588-21.205,13.282-47.073,1.857-69.188
		c-10.851-21.011-30.237-34.13-53.188-36.007c-1.888-0.154-3.803-0.218-5.725-0.231l-18.46-0.142l12.754-13.352
		c39.914-41.752,93.648-64.753,151.301-64.753c35.802,0,71.179,9.24,102.309,26.716l2.969,1.67l0.849,3.303
		c1.716,6.683,4.278,12.915,7.614,18.53l49.056,82.667c1.838,3.111,4.967,4.897,8.577,4.897c3.619,0,6.741-1.786,8.584-4.897
		l8.971-15.112l5.957,15.19c9.573,24.415,14.43,50.104,14.43,76.356C449.545,401.271,355.646,495.171,240.23,495.171z
		 M48.637,312.091c12.838,94.259,93.867,167.133,191.594,167.133c106.626,0,193.366-86.739,193.366-193.361
		c0-20.135-3.091-39.899-9.194-58.931c-3.816,2.159-8.191,3.341-12.792,3.341c-9.245,0-17.579-4.754-22.296-12.697l-49.056-82.666
		c-3.535-5.963-6.354-12.439-8.412-19.327C303.809,100.47,272.201,92.49,240.23,92.49c-47.663,0-92.44,17.027-127.753,48.253
		c23.562,5.191,43.73,20.688,55.231,42.959c13.969,27.037,13.108,58.675-2.306,84.659l-49.063,82.68
		c-4.723,7.94-13.057,12.695-22.296,12.695c-9.245,0-17.58-4.755-22.295-12.695L48.637,312.091z"/>
	<path d="M240.23,495.171c-19,0-37.967-2.608-56.375-7.748l-2.878-0.798l-1.644-2.504c-27.834-42.473-45.106-113.624-46.204-190.315
		l-0.032-2.248l18.594-31.343c14.695-24.763,12.684-56.826-5.017-79.789l-2.308-2.995l0.855-3.687
		c8.063-34.606,19.861-64.394,34.112-86.15l1.644-2.506l2.878-0.797c36.817-10.267,75.947-10.267,112.75,0l2.885,0.797l1.639,2.506
		c28.996,44.257,46.313,118.379,46.313,198.269c0,79.892-17.316,154-46.313,198.259l-1.646,2.504l-2.878,0.798
		C278.204,492.563,259.23,495.171,240.23,495.171z M191.052,472.864c32.183,8.454,66.172,8.454,98.357,0
		c26.395-42.062,42.092-111.621,42.092-187.002c0-75.38-15.697-144.939-42.092-187.012c-32.185-8.455-66.161-8.455-98.357,0
		c-12.048,19.238-22.181,45.016-29.453,74.957c19.834,28.154,21.426,64.856,3.803,94.554l-16.301,27.447
		C150.426,367.22,166.019,432.937,191.052,472.864z"/>
	<path d="M411.61,83.816c-15.189,0-27.545-12.35-27.545-27.539s12.355-27.539,27.545-27.539s27.546,12.349,27.546,27.539
		S426.8,83.816,411.61,83.816z M411.61,44.673c-6.393,0-11.597,5.204-11.597,11.604c0,6.4,5.204,11.604,11.597,11.604
		c6.399,0,11.605-5.203,11.605-11.604C423.216,49.877,418.01,44.673,411.61,44.673z"/>
	<path d="M453.496,140.307c-4.401,0-7.967-3.573-7.967-7.98v-14.831c0-7.285-5.938-13.222-13.224-13.222H390.92
		c-7.291,0-13.229,5.937-13.229,13.222v14.831c0,4.407-3.565,7.98-7.967,7.98s-7.974-3.573-7.974-7.98v-14.831
		c0-16.087,13.081-29.169,29.169-29.169h41.386c16.083,0,29.164,13.082,29.164,29.169v14.831
		C461.47,136.733,457.904,140.307,453.496,140.307z"/>
	<path d="M94.051,217.293c-15.189,0-27.546-12.361-27.546-27.552c0-15.189,12.356-27.538,27.546-27.538
		c15.189,0,27.539,12.349,27.539,27.538C121.589,204.932,109.24,217.293,94.051,217.293z M94.051,178.151
		c-6.399,0-11.604,5.191-11.604,11.591c0,6.4,5.205,11.604,11.604,11.604c6.392,0,11.597-5.204,11.597-11.604
		C105.648,183.342,100.443,178.151,94.051,178.151z"/>
	<path d="M135.937,273.757c-4.401,0-7.974-3.558-7.974-7.966v-14.829c0-7.286-5.93-13.224-13.223-13.224H73.355
		c-7.293,0-13.223,5.938-13.223,13.224v14.829c0,4.408-3.573,7.966-7.974,7.966c-4.401,0-7.968-3.558-7.968-7.966v-14.829
		c0-16.089,13.082-29.171,29.165-29.171h41.385c16.089,0,29.169,13.082,29.169,29.171v14.829
		C143.909,270.199,140.337,273.757,135.937,273.757z"/>
</g>
</svg>
