<?xml version="1.0" encoding="utf-8"?>
<!-- Generator: Adobe Illustrator 16.0.0, SVG Export Plug-In . SVG Version: 6.00 Build 0)  -->
<!DOCTYPE svg PUBLIC "-//W3C//DTD SVG 1.1//EN" "http://www.w3.org/Graphics/SVG/1.1/DTD/svg11.dtd">
<svg version="1.1" id="Layer_1" xmlns="http://www.w3.org/2000/svg" xmlns:xlink="http://www.w3.org/1999/xlink" x="0px" y="0px"
	 width="496px" height="496px" viewBox="0 0 496 496" enable-background="new 0 0 496 496" xml:space="preserve">
<polygon points="222.034,312.348 303.156,312.348 289.912,353.063 227.925,353.063 188.125,276.389 150.797,276.389 150.797,294.67 
	176.25,294.67 216.049,371.345 304.012,371.345 329.148,294.065 222.034,294.065 "/>
<path d="M220.674,379.689c-8.189,0-14.83,6.344-14.83,14.163c0,7.821,6.641,14.163,14.83,14.163c8.19,0,14.823-6.344,14.823-14.163
	C235.498,386.032,228.864,379.689,220.674,379.689z"/>
<path d="M299.461,379.689c-8.188,0-14.822,6.344-14.822,14.163c0,7.821,6.635,14.163,14.822,14.163
	c8.189,0,14.83-6.344,14.83-14.163C314.291,386.032,307.65,379.689,299.461,379.689z"/>
<g id="_x38_">
	<g>
		<rect x="32.546" y="229.575" width="18.635" height="210.561"/>
	</g>
	<g>
		<rect x="445.69" y="232.477" width="18.636" height="207.659"/>
	</g>
	<g>
		<path d="M56.389,244.909c-17.626,0-33.903-8.088-44.656-22.19c-10.751-14.101-14.334-32.055-9.831-49.26L41.416,22.5h98.025
			l-27.395,174.421C107.678,224.727,84.271,244.909,56.389,244.909z M55.765,41.318l-35.847,136.95
			c-3.015,11.516-0.616,23.533,6.58,32.97c7.198,9.439,18.093,14.854,29.891,14.854c18.662,0,34.329-13.508,37.253-32.119
			l23.976-152.655H55.765z"/>
	</g>
	<g>
		<path d="M153.19,244.909h-1.55c-16.514,0-32.136-7.272-42.859-19.953c-10.723-12.68-15.389-29.399-12.804-45.868L120.572,22.5
			h97.717l-8.822,168.507C207.886,221.232,183.166,244.909,153.19,244.909z M136.485,41.318l-22.102,140.718
			c-1.731,11.023,1.393,22.213,8.57,30.701c7.177,8.487,17.634,13.354,28.688,13.354h1.55c20.063,0,36.609-15.847,37.667-36.077
			l7.785-148.697H136.485z"/>
	</g>
	<g>
		<path d="M249.472,244.909h-2.074c-15.622,0-30.144-6.303-40.892-17.747c-10.747-11.441-16.21-26.415-15.384-42.162l8.506-162.5
			h97.615l8.499,162.501c0.826,15.748-4.639,30.723-15.385,42.165C279.609,238.607,265.089,244.909,249.472,244.909z
			 M217.304,41.318l-7.573,144.677c-0.553,10.54,3.104,20.562,10.296,28.219c7.194,7.659,16.915,11.878,27.371,11.878h2.074
			c10.453,0,20.171-4.218,27.364-11.875c7.191-7.658,10.85-17.68,10.296-28.221l-7.566-144.677H217.304z"/>
	</g>
	<g>
		<path d="M345.229,244.909h-1.555c-29.968,0-54.687-23.676-56.276-53.899L278.582,22.5h97.716l24.589,156.588
			c2.585,16.469-2.081,33.188-12.805,45.869C377.36,237.637,361.739,244.909,345.229,244.909z M298.228,41.318l7.778,148.697
			c1.064,20.229,17.609,36.077,37.668,36.077h1.555c11.052,0,21.507-4.868,28.683-13.354c7.177-8.488,10.301-19.678,8.57-30.702
			L360.385,41.318H298.228z"/>
	</g>
	<g>
		<path d="M440.48,244.909c-27.887,0-51.295-20.182-55.662-47.989L357.429,22.5h98.019l39.514,150.959
			c4.505,17.206,0.923,35.162-9.829,49.263C474.381,236.822,458.105,244.909,440.48,244.909z M379.253,41.318l23.972,152.655
			c2.921,18.61,18.591,32.118,37.256,32.118c11.799,0,22.691-5.413,29.887-14.85c7.197-9.438,9.594-21.456,6.577-32.973
			L441.099,41.318H379.253z"/>
	</g>
	<g>
		<path d="M490.202,500.283H6.661v-70.603h483.542V500.283z M25.295,481.466h446.273v-32.967H25.295V481.466z"/>
	</g>
</g>
</svg>
