<?xml version="1.0" encoding="utf-8"?>
<!-- Generator: Adobe Illustrator 16.0.0, SVG Export Plug-In . SVG Version: 6.00 Build 0)  -->
<!DOCTYPE svg PUBLIC "-//W3C//DTD SVG 1.1//EN" "http://www.w3.org/Graphics/SVG/1.1/DTD/svg11.dtd">
<svg version="1.1" id="Layer_1" xmlns="http://www.w3.org/2000/svg" xmlns:xlink="http://www.w3.org/1999/xlink" x="0px" y="0px"
	 width="496px" height="496px" viewBox="0 0 496 496" enable-background="new 0 0 496 496" xml:space="preserve">
<g>
	<path d="M469.917,331.009H32.001c-14.388,0-26.083-11.711-26.083-26.1V38.103c0-14.389,11.695-26.099,26.083-26.099h53.474v17.404
		H32.001c-4.796,0-8.695,3.898-8.695,8.695v266.806c0,4.797,3.899,8.694,8.695,8.694h437.916c4.794,0,8.694-3.897,8.694-8.694
		V38.103c0-4.796-3.9-8.695-8.694-8.695H285.275V12.004h184.642c14.386,0,26.083,11.71,26.083,26.099v266.806
		C496,319.298,484.303,331.009,469.917,331.009z"/>
	<path d="M115.921,29.408H85.475c-4.81,0-8.708-3.899-8.708-8.702c0-4.804,3.898-8.702,8.708-8.702h30.446
		c4.812,0,8.695,3.898,8.695,8.702C124.616,25.509,120.732,29.408,115.921,29.408z"/>
	<path d="M208.521,29.408h-46.293c-4.81,0-8.695-3.899-8.695-8.702c0-4.804,3.885-8.702,8.695-8.702h46.293
		c4.811,0,8.71,3.898,8.71,8.702C217.231,25.509,213.333,29.408,208.521,29.408z"/>
	<path d="M285.275,29.408h-30.461c-4.795,0-8.694-3.899-8.694-8.702c0-4.804,3.899-8.702,8.694-8.702h30.461
		c4.797,0,8.693,3.898,8.693,8.702C293.969,25.509,290.072,29.408,285.275,29.408z"/>
	<path d="M101.785,183.656c-18.875,0-34.247-15.368-34.247-34.259s15.372-34.261,34.247-34.261c18.891,0,34.262,15.37,34.262,34.261
		S120.675,183.656,101.785,183.656z M101.785,132.54c-9.283,0-16.856,7.56-16.856,16.857c0,9.296,7.574,16.857,16.856,16.857
		c9.299,0,16.857-7.561,16.857-16.857C118.642,140.1,111.084,132.54,101.785,132.54z"/>
	<path d="M259.723,228.787c-18.89,0-34.259-15.371-34.259-34.262c0-18.891,15.369-34.259,34.259-34.259
		c18.877,0,34.246,15.368,34.246,34.259C293.969,213.416,278.6,228.787,259.723,228.787z M259.723,177.67
		c-9.297,0-16.856,7.558-16.856,16.855c0,9.299,7.56,16.857,16.856,16.857c9.284,0,16.857-7.558,16.857-16.857
		C276.58,185.229,269.007,177.67,259.723,177.67z"/>
	<path d="M419.232,142.595c-18.891,0-34.246-15.37-34.246-34.274c0-18.875,15.355-34.247,34.246-34.247
		c18.876,0,34.248,15.372,34.248,34.247C453.48,127.225,438.108,142.595,419.232,142.595z M419.232,91.472
		c-9.299,0-16.857,7.565-16.857,16.849c0,9.312,7.559,16.858,16.857,16.858c9.285,0,16.858-7.546,16.858-16.858
		C436.091,99.037,428.518,91.472,419.232,91.472z"/>
	<polygon points="230.778,202.535 123.957,157.404 130.73,141.389 237.538,186.519 	"/>
	<polygon points="290.689,201.328 279.861,187.726 388.267,101.519 399.096,115.137 	"/>
	<path d="M444.785,278.811h-61.34c-4.798,0-8.697-3.897-8.697-8.71c0-4.794,3.899-8.694,8.697-8.694h61.34
		c4.81,0,8.695,3.9,8.695,8.694C453.48,274.913,449.595,278.811,444.785,278.811z"/>
	<path d="M192.059,278.811h-30.447c-4.81,0-8.708-3.897-8.708-8.71c0-4.794,3.899-8.694,8.708-8.694h30.447
		c4.81,0,8.694,3.9,8.694,8.694C200.753,274.913,196.868,278.811,192.059,278.811z"/>
	<path d="M299.355,278.811H245.7c-4.797,0-8.694-3.897-8.694-8.71c0-4.794,3.897-8.694,8.694-8.694h53.656
		c4.797,0,8.695,3.9,8.695,8.694C308.051,274.913,304.152,278.811,299.355,278.811z"/>
	<path d="M383.445,278.811h-30.448c-4.81,0-8.694-3.897-8.694-8.71c0-4.794,3.885-8.694,8.694-8.694h30.448
		c4.809,0,8.707,3.9,8.707,8.694C392.152,274.913,388.254,278.811,383.445,278.811z"/>
	<path d="M161.611,278.811H76.234c-4.795,0-8.696-3.897-8.696-8.71c0-4.794,3.901-8.694,8.696-8.694h85.377
		c4.797,0,8.696,3.9,8.696,8.694C170.307,274.913,166.408,278.811,161.611,278.811z"/>
	<path d="M279.23,491.962h-56.558c-4.796,0-8.695-3.9-8.695-8.694V322.299c0-4.794,3.898-8.695,8.695-8.695h56.558
		c4.812,0,8.71,3.901,8.71,8.695v160.969C287.94,488.062,284.042,491.962,279.23,491.962z M231.382,474.558h39.141V331.009h-39.141
		V474.558z"/>
	<path d="M438.922,491.962H59.378c-4.797,0-8.696-3.9-8.696-8.694c0-4.813,3.899-8.71,8.696-8.71h379.544
		c4.798,0,8.695,3.896,8.695,8.71C447.617,488.062,443.72,491.962,438.922,491.962z"/>
</g>
</svg>
