<?xml version="1.0" encoding="utf-8"?>
<!-- Generator: Adobe Illustrator 16.0.0, SVG Export Plug-In . SVG Version: 6.00 Build 0)  -->
<!DOCTYPE svg PUBLIC "-//W3C//DTD SVG 1.1//EN" "http://www.w3.org/Graphics/SVG/1.1/DTD/svg11.dtd">
<svg version="1.1" id="Layer_1" xmlns="http://www.w3.org/2000/svg" xmlns:xlink="http://www.w3.org/1999/xlink" x="0px" y="0px"
	 width="496px" height="496px" viewBox="0 0 496 496" enable-background="new 0 0 496 496" xml:space="preserve">
<g>
	<path d="M403.262,70.679c-10.686,0-21.289,1.91-31.308,5.507V50.053c0-25.203-20.502-45.704-45.703-45.704h-31.798H162.044h-31.803
		c-25.203,0-45.705,20.501-45.705,45.704v162.45H37.209c-17.666,0-32.04,14.351-32.04,31.989v11.767v37.861v71.778
		c0,17.666,14.374,32.041,32.04,32.041h47.328v50.205c0,25.202,20.501,45.704,45.705,45.704h196.009
		c25.201,0,45.703-20.502,45.703-45.704V250.576c9.979,3.584,20.578,5.485,31.308,5.485c51.123,0,92.717-41.593,92.717-92.717
		C495.979,112.25,454.385,70.679,403.262,70.679z M285.291,22.672V37.55c0,4.075-3.315,7.39-7.391,7.39h-99.304
		c-4.075,0-7.391-3.315-7.391-7.39V22.672H285.291z M37.209,230.826H259.5c7.564,0,13.718,6.13,13.718,13.666v2.605H23.493v-2.605
		C23.493,236.956,29.646,230.826,37.209,230.826z M23.493,265.421h249.725v19.537H23.493V265.421z M23.493,365.898v-62.616h249.725
		v62.616c0,7.564-6.153,13.717-13.718,13.717H37.209C29.646,379.615,23.493,373.463,23.493,365.898z M353.631,448.145
		c0,15.098-12.283,27.381-27.38,27.381H130.242c-15.098,0-27.381-12.283-27.381-27.381v-50.205H259.5
		c17.667,0,32.042-14.375,32.042-32.041V294.12v-37.861v-11.767c0-17.639-14.375-31.989-32.042-31.989H102.861V50.053
		c0-15.097,12.283-27.38,27.381-27.38h22.641V37.55c0,14.18,11.534,25.714,25.714,25.714H277.9c14.18,0,25.715-11.534,25.715-25.714
		V22.672h22.636c15.097,0,27.38,12.283,27.38,27.38v40.259V236.43V448.145z M403.262,237.738c-11.044,0-21.553-2.318-31.308-6.896
		V95.926c9.78-4.543,20.502-6.923,31.308-6.923c41.021,0,74.394,33.35,74.394,74.342
		C477.655,204.366,444.282,237.738,403.262,237.738z"/>
	<path d="M287.682,439.633H168.815c-5.059,0-9.161,4.103-9.161,9.162c0,5.059,4.102,9.16,9.161,9.16h118.866
		c5.059,0,9.161-4.102,9.161-9.16C296.843,443.735,292.74,439.633,287.682,439.633z"/>
	<path d="M198.119,356.916h30.126c5.059,0,9.162-4.104,9.162-9.162c0-5.059-4.103-9.162-9.162-9.162h-30.126
		c-5.059,0-9.162,4.104-9.162,9.162C188.957,352.812,193.06,356.916,198.119,356.916z"/>
	<path d="M407.623,134.919h9.885c3.389,0,6.147,2.758,6.147,6.148c0,5.059,4.104,9.162,9.161,9.162c5.06,0,9.163-4.103,9.163-9.162
		c0-12.05-8.771-22.032-20.252-24.044v-1.613c0-5.059-4.102-9.162-9.161-9.162c-5.059,0-9.162,4.103-9.162,9.162v1.613
		c-11.482,2.012-20.253,11.994-20.253,24.044v3.113c0,11.419,7.748,21.284,18.839,23.991l16.806,4.1
		c2.86,0.698,4.859,3.241,4.859,6.187c0,5.107-4.153,9.261-9.261,9.261h-6.771c-3.391,0-6.148-2.758-6.148-6.148
		c0-5.059-4.104-9.161-9.162-9.161c-5.06,0-9.161,4.103-9.161,9.161c0,12.051,8.771,22.033,20.253,24.045v1.615
		c0,5.059,4.104,9.162,9.162,9.162c5.06,0,9.161-4.103,9.161-9.162v-2.306c11.637-3.234,20.252-13.814,20.252-26.468
		c0-11.417-7.746-21.281-18.838-23.988l-16.806-4.101c-2.862-0.698-4.861-3.244-4.861-6.189v-3.113
		C401.475,137.677,404.232,134.919,407.623,134.919z"/>
</g>
</svg>
