<?xml version="1.0" encoding="iso-8859-1"?>
<!-- Generator: Adobe Illustrator 19.0.0, SVG Export Plug-In . SVG Version: 6.00 Build 0)  -->
<svg version="1.1" id="Capa_1" xmlns="http://www.w3.org/2000/svg" xmlns:xlink="http://www.w3.org/1999/xlink" x="0px" y="0px"
	 viewBox="0 0 512 512" style="enable-background:new 0 0 512 512;" xml:space="preserve">
<g>
	<g>
		<path d="M256,32C132.288,32,32,132.288,32,256s100.288,224,224,224c123.653-0.141,223.859-100.347,224-224
			C480,132.288,379.712,32,256,32z M256,458.667C144.07,458.667,53.333,367.93,53.333,256S144.07,53.333,256,53.333
			C367.879,53.457,458.543,144.121,458.667,256C458.667,367.93,367.93,458.667,256,458.667z"/>
	</g>
</g>
<g>
	<g>
		<rect x="245.333" width="21.333" height="85.333"/>
	</g>
</g>
<g>
	<g>
		<rect x="245.333" y="426.667" width="21.333" height="85.333"/>
	</g>
</g>
<g>
	<g>
		<rect y="245.333" width="85.333" height="21.333"/>
	</g>
</g>
<g>
	<g>
		<rect x="426.667" y="245.333" width="85.333" height="21.333"/>
	</g>
</g>
<g>
	<g>
		<path d="M334.037,299.221c-15.647-5.196-31.014-11.203-46.037-17.995v-0.501c26.018-12.367,42.616-38.584,42.667-67.392v-32
			c0-41.237-33.429-74.667-74.667-74.667s-74.667,33.429-74.667,74.667v32c0.05,28.808,16.648,55.025,42.667,67.392v0.501
			c-15.023,6.792-30.39,12.798-46.037,17.995c-38.848,12.949-39.296,40.928-39.296,42.112V384H160v-42.379
			c0-0.576,1.067-14.293,24.704-22.176c18.698-6.109,36.98-13.423,54.731-21.899c3.617-1.807,5.901-5.504,5.899-9.547v-14.389
			c0.002-4.519-2.844-8.549-7.104-10.059c-21.278-7.54-35.515-27.645-35.563-50.219v-32C202.667,151.878,226.545,128,256,128
			s53.333,23.878,53.333,53.333v32c-0.047,22.574-14.285,42.679-35.563,50.219c-4.26,1.509-7.106,5.539-7.104,10.059V288
			c-0.022,4.062,2.265,7.784,5.899,9.6c17.752,8.457,36.034,15.754,54.731,21.845c23.637,7.883,24.704,21.6,24.704,21.888V384
			h21.333v-42.667C373.333,340.149,372.885,312.171,334.037,299.221z"/>
	</g>
</g>
<g>
	<g>
		<rect x="245.333" y="352" width="21.333" height="21.333"/>
	</g>
</g>
<g>
	<g>
		<rect x="288" y="352" width="21.333" height="21.333"/>
	</g>
</g>
<g>
	<g>
		<rect x="202.667" y="352" width="21.333" height="21.333"/>
	</g>
</g>
<g>
</g>
<g>
</g>
<g>
</g>
<g>
</g>
<g>
</g>
<g>
</g>
<g>
</g>
<g>
</g>
<g>
</g>
<g>
</g>
<g>
</g>
<g>
</g>
<g>
</g>
<g>
</g>
<g>
</g>
</svg>
